/* XPM */
static char *reload[] = {
/* columns rows colors chars-per-pixel */
"32 32 132 2",
"   c #004CBD",
".  c #0C53BD",
"X  c #0F58B8",
"o  c #145CB6",
"O  c #155CBA",
"+  c #185FB7",
"@  c #1B5DBE",
"#  c #2664BE",
"$  c #326CBF",
"%  c #3172B6",
"&  c #3C7EB2",
"*  c #135CC4",
"=  c #1B5FC2",
"-  c #1A61C5",
";  c #1F69CB",
":  c #2065C6",
">  c #236BCA",
",  c #2967C2",
"<  c #2C6AC4",
"1  c #2973CE",
"2  c #2E77D0",
"3  c #2E79D1",
"4  c #306DC5",
"5  c #3B72C2",
"6  c #377FD3",
"7  c #407DBA",
"8  c #4C7DC2",
"9  c #4B7FCA",
"0  c #3A84D5",
"q  c #4881BE",
"w  c #4F8BB8",
"e  c #5489BB",
"r  c #6194BB",
"t  c #4993DC",
"y  c #4D9ADF",
"u  c #5A85C1",
"i  c #5887CB",
"p  c #52AEEC",
"a  c #5BA4E3",
"s  c #5DA8E4",
"d  c #53B1EF",
"f  c #59B4EB",
"g  c #56B4F3",
"h  c #58B7F6",
"j  c #5BBAF3",
"k  c #5CBDF9",
"l  c #608DCD",
"z  c #6493C3",
"x  c #6994CF",
"c  c #6994D0",
"v  c #719BC9",
"b  c #7B9AC4",
"n  c #7E9FC8",
"m  c #76A2C4",
"M  c #64B2E8",
"N  c #64BAEC",
"B  c #69B4E9",
"V  c #6BBCEC",
"C  c #62BDF3",
"Z  c #5FC0FC",
"A  c #61C0F6",
"S  c #64C4FB",
"D  c #67C9FF",
"F  c #69C2F2",
"G  c #6BCBFC",
"H  c #6FD0FC",
"J  c #72C4EE",
"K  c #74C4F1",
"L  c #73CEFB",
"P  c #7ECDF4",
"I  c #73D3FC",
"U  c #7FD1F7",
"Y  c #7CD6FB",
"T  c #7FD9FB",
"R  c #819EC5",
"E  c #85A1C8",
"W  c #8CA5C3",
"Q  c #89ADC4",
"!  c #98ADC8",
"~  c #91AED4",
"^  c #95B1D5",
"/  c #98B3D7",
"(  c #A6B5C6",
")  c #A5B7CD",
"_  c #A0BDCE",
"`  c #A9B8C7",
"'  c #AAB8C8",
"]  c #A4BCDB",
"[  c #ABBDD3",
"{  c #B4BDC5",
"}  c #81CEF4",
"|  c #84D2F5",
" . c #83D6FB",
".. c #82DAFC",
"X. c #88D6F7",
"o. c #88D7F8",
"O. c #8ADCFC",
"+. c #92DFFB",
"@. c #8DE0FE",
"#. c #93E2FD",
"$. c #99E6FD",
"%. c #9CE8FD",
"&. c #B3C2C7",
"*. c #B2C5CD",
"=. c #B7C4D4",
"-. c #B3C5DA",
";. c #B7C9D1",
":. c #B6C8DB",
">. c #BAC8D7",
",. c #BBC9DA",
"<. c #A3ECFD",
"1. c #C0C6C5",
"2. c #CECEC8",
"3. c #C2D0DE",
"4. c #D0CEC6",
"5. c #D0D0C5",
"6. c #D3D2C9",
"7. c #D9D8CE",
"8. c #DBDAD2",
"9. c #D1DBE2",
"0. c #E0DED5",
"q. c #E0E0D5",
"w. c #E4E4DA",
"e. c #E8E7DE",
"r. c #EAE9DE",
"t. c #E0E5E5",
"y. c #EEEDE2",
"u. c #F0EEE3",
"i. c #F0EFE8",
"p. c #F0F0E5",
"a. c #F0F0EA",
"s. c None",
/* pixels */
"s.s.s.s.s.s.s.s.s.s.s.s.s.s.s.s.s.s.s.s.s.s.s.s.s.s.s.s.s.s.s.s.",
"s.s.s.s.s.s.s.s.s.s.s.s.s.s.s.s.s.s.s.s.s.s.s.s.s.s.s.s.s.s.s.s.",
"s.s.s.s.s.s.s.s.s.s.s.s.s.s.s.s.s.s.s.s.s.s.s.s.s.s.s.s.s.s.s.s.",
"s.s.s.s.s.s.s.s.s.s.s.s.s.s.s.s.s.s.s.s.s.s.s.s.s.s.s.s.s.s.s.s.",
"s.s.s.s.s.s.s.s.s.s.s.s.s.s.s.s.s.s.s.s.s.s.s.s.s.s.s.s.s.s.s.s.",
"s.s.s.s.s.s.s.s.s.s.s.s.s.c <   ; * < i ^ s.s.s.s.^ . s.s.s.s.s.",
"s.s.s.s.s.s.s.s.s.s.s.c > s } O.O.+. .M 6 = ~ s.^ - * s.s.s.s.s.",
"s.s.s.s.s.s.s.s.s.s.< t o.| F C C D L Y #.} 2 5 - | > 6.s.s.s.s.",
"s.s.s.s.s.s.s.s.s.i y T V p d g h k Z Z D O.#.a  .%.; 4.s.s.s.s.",
"s.s.s.s.s.s.s.s.] ; | J f N C C h k Z S S D T $.#.%.; 4.s.s.s.s.",
"s.s.s.s.s.s.s.s.< f X.U M M B | @.T H A D D G Y I <.; 4.s.s.s.s.",
"s.s.s.s.s.s.s.,.> K 1 X o .   * 1 M @.O.G G H H I <.; 4.s.s.s.s.",
"s.s.s.s.s.s.s.x 0 - % & % @ v 2.' 8 > P $.L L L I <.> 4.s.s.s.s.",
"s.s.s.s.s.s.s., . e r r 8 ! 6.s.s.=.> } $.T Y T ..<.; 4.s.s.s.s.",
"s.s.s.s.s.s.s.. z Q Q n ) s.s.s.3.: } %.%.<.<.<.<.<.> 4.s.s.s.s.",
"s.s.s.s.s.s.s.-.*.*.*.[ s.s.s.s.=                   . 4.s.s.s.s.",
"s.s.s.s.s.*                   = s.s.4.4.' &.&.&.( 4.4.6.s.s.s.s.",
"s.s.s.s.s.; <.<.<.<.%.%.%.} - ' s.s.s.,./ / *.v . s.s.s.s.s.s.s.",
"s.s.s.s.s.; <.@.....T $.X., ( 2.s.s.-.l m m u * , s.s.s.s.s.s.s.",
"s.s.s.s.s.; <.Y I I Y %.} > u ;.s./ < 8 w & = 0 u s.s.s.s.s.s.s.",
"s.s.s.s.s.; <.I I H H H @.#.B 1 . . o + . 3 K > { s.s.s.s.s.s.s.",
"s.s.s.s.s.; <.I ..I H G S I X.O.o.B M M | X.M , 4.s.s.s.s.s.s.s.",
"s.s.s.s.s.; <.$.%...G G G F A j F F N N J | > W s.s.s.s.s.s.s.s.",
"s.s.s.s.s.; <.o.s $.@.H S S A k j f f V X.y & 4.s.s.s.s.s.s.s.s.",
"s.s.s.s.s.; | - % 1 | $...L K F F J | X.w % 5.s.s.s.s.s.s.s.s.s.",
"s.s.s.s.s.* - b 5.E @ 0 B o.#.+.O.P s > w 5.s.s.s.s.s.s.s.s.s.s.",
"s.s.s.s.s.. n 4.s.s.s.W 8 #   >   # e &.5.s.s.s.s.s.s.s.s.s.s.s.",
"s.s.s.s.s.s.s.s.s.s.s.s.s.s.6.6.5.4.7.s.s.s.s.s.s.s.s.s.s.s.s.s.",
"s.s.s.s.s.s.s.s.s.s.s.s.s.s.s.s.s.s.s.s.s.s.s.s.s.s.s.s.s.s.s.s.",
"s.s.s.s.s.s.s.s.s.s.s.s.s.s.s.s.s.s.s.s.s.s.s.s.s.s.s.s.s.s.s.s.",
"s.s.s.s.s.s.s.s.s.s.s.s.s.s.s.s.s.s.s.s.s.s.s.s.s.s.s.s.s.s.s.s.",
"s.s.s.s.s.s.s.s.s.s.s.s.s.s.s.s.s.s.s.s.s.s.s.s.s.s.s.s.s.s.s.s."
};
