/* XPM */
static const char *starIcon[]={
"34 34 3 1",
". c #0f0f0f",
"a c #000000",
"# c #ff0000",
"..................................",
"..................................",
".................#................",
".................#................",
"................#.#...............",
"................#.#...............",
"................#.#...............",
"...............##.##..............",
"...............#...#..............",
"...............#...#..............",
"..............##...##.............",
"..............#.....#.............",
"..............#.....#.............",
".##############.....#############.",
"..#...............................",
"...##.............................",
".....#............aa..aaaaa.a...aa",
"......#..........a..a...a..a.a..a.",
".......##........a......a..a.a..a.",
".........#........aa....a..a.a..aa",
"..........#.....a...a..a..aaaa.a..",
"...........#....a...a..a..a..a.a..",
"...........#.....aaa...a..a..a.a..",
"...........#......................",
"...........#............#.........",
"..........#..............#........",
"..........#......##......#........",
"..........#....##..##....#........",
".........#....#.....##...#........",
".........#...#........#...#.......",
".........#..#..........#..#.......",
".........###............###.......",
"........##................##......",
"........#..................#......"};
