/* XPM */
static char *image4[]={
"22 22 88 2",
"Qt c None",
".2 c #000000",
".S c #08ff08",
"#v c #100810",
".U c #101010",
"#c c #101018",
".M c #181018",
"#e c #181818",
".A c #181821",
".L c #211821",
"#l c #212121",
".z c #212129",
"#m c #292129",
"#u c #292929",
"#n c #292931",
".R c #29ff29",
"#o c #312931",
".T c #313131",
"#p c #313139",
".Z c #31ff31",
"#q c #393139",
"#t c #393939",
".y c #393942",
"#s c #423942",
".o c #424242",
"#h c #4a4a52",
".n c #5a525a",
"#r c #5a5a63",
".I c #5ace5a",
"#b c #6b636b",
".p c #6b6b6b",
".x c #6b6b73",
".Y c #6bff63",
".l c #736b73",
".t c #7b737b",
".s c #7b7384",
".0 c #7bff7b",
".r c #847b84",
".u c #847b8c",
"#g c #84848c",
".v c #8c7b94",
"#i c #8c848c",
".w c #8c8494",
"#j c #8c8c8c",
".8 c #8c8c94",
".m c #948c94",
"#k c #948c9c",
"#f c #949494",
".q c #94949c",
".J c #94c694",
"#d c #9c949c",
"#a c #9c94a5",
".k c #9c9c9c",
".N c #9c9ca5",
".H c #9ccea5",
".K c #a59ca5",
"#. c #a59cad",
".i c #a5a5a5",
".3 c #a5a5ad",
"## c #ad9cad",
".V c #ada5ad",
".d c #adadad",
".j c #adadb5",
".9 c #b5adb5",
".# c #b5b5b5",
".a c #bdbdbd",
".7 c #bdd6bd",
".c c #c6c6c6",
".5 c #cec6ce",
".b c #cecece",
".4 c #ceced6",
".F c #d6ced6",
".G c #d6cede",
".h c #d6d6d6",
".E c #d6d6de",
".Q c #d6ffd6",
".B c #ded6de",
".1 c #ded6e7",
".g c #dedede",
".D c #dedee7",
".6 c #e7dee7",
".f c #e7e7e7",
".C c #e7e7ef",
".X c #e7ffe7",
".O c #efe7ef",
".e c #efefef",
".W c #f7f7f7",
".P c #ffffff",
"QtQtQtQtQtQt.#.a.b.b.b.b.c.c.a.a.d.aQtQtQtQt",
"QtQtQtQtQtQt.a.e.f.f.f.f.f.e.e.e.g.aQtQtQtQt",
"QtQtQtQtQtQt.a.c.c.c.b.b.c.c.c.c.a.cQtQtQtQt",
"QtQtQtQtQtQt.#.a.a.a.a.#.a.a.#.#.d.aQtQtQtQt",
"QtQtQtQtQt.c.d.c.a.c.c.c.a.a.a.c.#QtQtQtQtQt",
"QtQtQtQtQt.a.a.#.a.a.a.a.a.a.c.c.#QtQtQtQtQt",
"QtQtQtQtQt.a.#.c.a.a.a.a.a.c.a.c.dQtQtQtQtQt",
"QtQtQtQtQt.c.a.a.a.a.a.a.a.a.a.a.#QtQtQtQtQt",
"QtQtQtQtQt.d.b.f.g.g.g.g.g.g.h.g.i.i.jQtQtQt",
"QtQtQt.a.k.l.#.h.b.h.b.h.b.h.g.g.m.n.o.p.#Qt",
"QtQt.a.q.r.s.t.t.t.t.t.t.t.u.v.w.x.y.z.A.o.i",
"Qt.a.k.B.C.D.B.E.E.E.E.F.G.H.I.J.K.o.L.L.M.y",
".a.N.O.P.P.P.P.P.P.P.P.P.Q.R.S.R.b.v.T.A.U.L",
".V.W.P.P.P.P.P.P.P.P.P.P.X.Y.Z.0.P.1.t.A.2.L",
".3.E.4.5.4.h.E.E.g.6.D.B.D.E.7.F.4.5.8.M.2.A",
".m.9.j.V.3#..3.K#.#..i#..K#.###a.q.8#b#c.2.L",
".m.j.j#..3.K.K.K.N.K.N.N.N.N#a#d#d.w#b#c.2#e",
"#f#.#..K.N.K.N.N.N#a.k#a#d#d#d#a.m#g#b.M.2#h",
".m.3.K.K#a.k#a#d#a.k#a#d#a#d.q.m.8#i.x#c#e.d",
"#f#g#i.w#j.w#i.8.w#i.8.8.m.8.m#k.8.w#b#e#fQt",
".#.l.z.A#l.z#m#m#m#n#o#o#p#p#q#q#p#o#p#fQtQt",
"QtQt.d#r#s#s#t#p.T.T.T#u#u.z#e#e#v.o.kQtQtQt"};
