/* XPM */
static char *starlogo_1[] = {
/* columns rows colors chars-per-pixel */
"50 37 102 2",
"   c #0101FE",
".  c #0A04F9",
"X  c #0A0AFE",
"o  c #110CFB",
"O  c #1313FE",
"+  c #1B1BFE",
"@  c #2424FE",
"#  c #2C2AFC",
"$  c #3837FD",
"%  c #3C3CFC",
"&  c #4141FD",
"*  c #4949FE",
"=  c #5454FD",
"-  c #5E5EFF",
";  c #5F66FF",
":  c #6363FE",
">  c #6E6EFE",
",  c #6C76FF",
"<  c #7473FD",
"1  c #767EFF",
"2  c #7B7BFE",
"3  c #7A83FF",
"4  c #FE0101",
"5  c #FF0D0D",
"6  c #FE1314",
"7  c #FE1C1C",
"8  c #FE2424",
"9  c #FE2A2A",
"0  c #FC3435",
"q  c #FC373A",
"w  c #FE3B3B",
"e  c #FE4242",
"r  c #FF4C4C",
"t  c #FC5454",
"y  c #FE5C5C",
"u  c #FE6464",
"i  c #FE6C6C",
"p  c #FE7373",
"a  c #FE7C7C",
"s  c #FF827B",
"d  c #8383FE",
"f  c #8A8BFE",
"g  c #9181FF",
"h  c #9494FC",
"j  c #9F9FF5",
"k  c #9D9DFE",
"l  c #99A7FF",
"z  c #9CAEFF",
"x  c #A19BF9",
"c  c #A3A3FF",
"v  c #A2AAFF",
"b  c #AAAAFD",
"n  c #A5B4FF",
"m  c #B5B4F6",
"M  c #B4B4FE",
"N  c #BBBBFE",
"B  c #FE8484",
"V  c #FF8F81",
"C  c #FE8B8B",
"Z  c #FF9E8F",
"A  c #F79191",
"S  c #FF9292",
"D  c #FE9D9D",
"F  c #F7A8A8",
"G  c #FDA4A4",
"H  c #FEABAB",
"J  c #FFB5AE",
"K  c #F6B0B0",
"L  c #F4BEBE",
"P  c #FEB4B3",
"I  c #FFBFB4",
"U  c #FCBCBC",
"Y  c #FFC9BE",
"T  c #C4C4FE",
"R  c #CACAFE",
"E  c #D5D5F6",
"W  c #D5D5FE",
"Q  c #DCDEFE",
"!  c #D2E7FF",
"~  c #F7C5C5",
"^  c #F5CACA",
"/  c #FFC3C3",
"(  c #FECCCC",
")  c #F5DCDC",
"_  c #FED4D4",
"`  c #FEDCDC",
"'  c #FFE1DC",
"]  c #E0E0F5",
"[  c #E2E2FD",
"{  c #ECECFE",
"}  c #F4E1E1",
"|  c #FEE4E4",
" . c #FEECEC",
".. c #F7E7FD",
"X. c #FFF0E7",
"o. c #F5F6F6",
"O. c #F4F4FD",
"+. c #F7FCFC",
"@. c #FEF3F3",
"#. c #F9F7FF",
"$. c #FEFEF6",
"%. c #FEFEFE",
/* pixels */
"%.%.%.%.%.%.%.%.%.%.%.%.%.%.%.%.%.%.%.%.%.%.%.%.%.%.%.%.%.%.%.%.%.%.%.%.%.%.%.%.%.%.%.%.%.%.%.%.%.%.",
"%.%.%.%.%.%.%.%.%.%.%.%.%.%.%.%.%.%. .@.%.%.%.%.%.%.%.%.%.%.%.%.%.%.%.%.%.%.%.%.%.%.%.%.%.%.%.%.%.%.",
"%.%.%.%.%.%.%.%.%.%.%.%.%.%.%.%.%.$.C _ %.%.%.%.%.%.%.%.%.%.%.%.%.%.%.%.%.%.%.%.%.%.%.%.%.%.%.%.%.%.",
"%.%.%.%.%.%.%.%.%.%.%.%.%.%.%.%.%.| e A +.$.%.%.%.%.%.%.%.%.%.%.%.%.%.%.%.%.%.%.%.%.%.%.%.%.%.%.%.%.",
"%.%.%.%.%.%.%.%.%.%.%.%.%.%.%.%.%.P i a  .%.%.%.%.%.%.%.%.%.%.%.%.%.%.%.%.%.%.%.%.%.%.%.%.%.%.%.%.%.",
"%.%.%.%.%.%.%.%.%.%.%.%.%.%.%.%.+.q U r F %.%.%.%.%.%.%.%.%.%.%.%.%.%.%.%.%.%.%.%.%.%.%.%.%.%.%.%.%.",
"%.%.%.%.%.%.%.%.%.%.%.%.%.%.%.%./ 9 $.C t %.%.%.%.%.%.%.%.%.%.%.%.%.%.%.%.%.%.%.%.%.%.%.%.%.%.%.%.%.",
"%.%.%.%.%.%.%.%.%.%.%.%.%.%.%.+.t 9 %.H 6 | %.%.%.%.%.%.%.%.%.%.%.%.%.%.%.%.%.%.%.%.%.%.%.%.%.%.%.%.",
"%.%.%.%.%.%.%.%.%.%.%.%.%.%.%.` 7 C %.| 7 B %.%.%.%.%.%.%.%.%.%.%.%.%.%.%.%.%.%.%.%.%.%.%.%.%.%.%.%.",
"%.%.%.%.%.%.%.%.%.%.%.%.%.$.%.D 4 / %.%.w 9 $.%.%.%.%.%.%.%.%.%.%.%.%.%.%.%.%.%.%.%.%.%.%.%.%.%.%.%.",
"%.%.%.%.%.@.$.%.$.%.%.%.%.%.%.e 4 | %.%.i 4 H +.%.$.%.%.%.%.%.@.$.%.%.%.%.%.%.%.%.%.%.%.%.%.%.%.%.%.",
"%.%.%.%.%.%.%.%.%.%.%.%.%. ./ 4 e  .%.%.G 4 e  .%.%.%.%.%.%.%.%.%.%.%.%.%.%.%.%.%.%.%.%.%.%.%.%.%.%.",
"%.%. .` / D G H S p a p a r 6 4 B %.%.%. .5 6 q i s p p a H G G H _ ` %.%.%.%.%.%.%.%.%.%.%.%.%.%.%.",
"%.%. .D 8 i y t 7 4 4 4 4 4 4 4 G +.$.%.%.9 4 4 4 4 4 4 4 e y y e e ` %.%.%.%.%.%.%.%.%.%.%.%.%.%.%.",
"%.%.%.o.a r  .%. .| | | ~ P H K @.%.%.O.%.Y H P I ' X.X.X.@.%.o.D J %.%.%.%.%.%.%.%.%.%.%.%.%.%.%.%.",
"%.%.%.%.%.p 6 H %.%.%.%.%.%.%.%.O.2 & # , Q %.v 3 , f 1 ; T %.#.g l ..%.%.Q d f - < c O.%.%.%.%.%.%.",
"%.%.%.%.%.%.C 4 p  .%.%.%.%.%.%.<   : h +   Q j * #   $ = m %.M     N %.%.M   + = *   > $.%.%.%.%.%.",
"%.%.%.%.%.%.%.C 6 9 P %.%.%.%.%.% @ +.$.R < Q $.%.c   R %.$.%.* X @ d %.%.N X c %.%.& O O.%.%.%.%.%.",
"%.%.%.%.%.%.%.+.L 6 4 p  .%.+.%.f   O < M O.%.%.%.c   T %.%.W O > < @ { %.N   f [ ] & & $.%.%.%.%.%.",
"%.%.%.%.%.%.%.%.+.L 6 4 w / %.%.%.f % @   @ E %.%.c   T %.%.b   Q R   m %.N X   X     W %.%.%.%.%.%.",
"%.%.%.%.%.%.%.%.%.+.L 9 4 7 @.+.N [ $.[ h   : %.%.c   T %.$.<   < -   < %.N X > R b O 2 %.%.%.%.%.%.",
"%.%.%.%.%.%.%.%.%.%.%.t 4 a %.$.= X N $.M   h %.%.c   T %.W O + $ & O + %.N . l %.#.O = %.#.%.%.%.%.",
"%.%.%.%.%.%.%.%.%.%.@.w 4 ^ #.%.R # . o X = [ %.%.x . T %.j   T %.%.c . N T   k +.{ + = %.%.%.%.%.%.",
"%.%.%.%.%.%.%.%.%.%.@.4 q  .%.%.$.%.n z N %.%.%.%.! n { %.R b #.%.%.{ c W { c [ %.%.M b $.%.%.%.%.%.",
"%.%.%.%.%.%.%.%.%.%.U 4 B %.$.%.%.U V Z $.%.@.%.%.s / %.%.%.%.%.%.%.%.%.%.%.%.%.%.%.%.%.%.%.%.%.%.%.",
"%.%.%.%.%.%.%.%.%.%.p 6 _ %.%.%.i 4 4 4 q ( %.%.%.6 0  .%.%.#.%.%.%.%.%.%.%.#.%.%.%.#.%.%.%.%.%.%.%.",
"%.%.%.%.%.%.%.%.%.+.0 0 +.%.%.u 4 7 a e 4 6 ) %.$.H 5 ` %.%.%.%.%.%.%.%.%.%.%.%.%.%.%.%.%.%.%.%.%.%.",
"%.%.%.%.%.%.%.%.%.+.7 S %. .i 4 u ~ %.$.C 7 5 / %. .7 D %.$.%.%.%.%.%.%.%.%.%.%.%.%.%.%.%.%.%.%.%.%.",
"%.%.%.%.%.%.%.%.%.H 6 %._ 0 7 H %.%.%.%.%._ u 5 B %.i i %.%.%.%.%.%.%.%.%.%.%.%.%.%.%.%.%.%.%.%.%.%.",
"%.%.%.%.%.%.%.$.%.p B  .e e } %.%.$.%.%.%.%.%.D 6 H H r  .%.%.%.%.%.%.%.%.%.%.%.%.%.%.%.%.%.%.%.%.%.",
"%.%.%.%.%.%.%.$.%.y p t D %.%.%.%.%.%.%.%.%.%.%.| y a t | %.%.%.%.%.%.%.%.%.%.%.%.%.%.%.%.%.%.%.%.%.",
"%.%.%.%.%.%.%.%. .r y ( %.%.%.%.%.%.%.%.%.%.%.$.%.%.H 8 H %.%.%.%.%.%.%.%.%.%.%.%.%.%.%.%.%.%.%.%.%.",
"%.%.%.%.%.%.%.%.| K $.%.%.%.%.%.%.%.%.%.%.%.%.%.%.%.%.` U %.%.%.%.%.%.%.%.%.%.%.%.%.%.%.%.%.%.%.%.%.",
"%.%.%.%.%.%.%.%.%.%.%.%.%.%.%.%.%.%.%.%.%.%.%.%.%.%.%.%.%.%.%.%.%.%.%.%.%.%.%.%.%.%.%.%.%.%.%.%.%.%.",
"%.%.%.%.%.%.%.%.%.%.%.%.%.%.%.%.%.%.%.%.%.%.%.%.%.%.%.$.%.%.%.%.%.%.%.%.%.%.%.%.%.%.%.%.%.%.%.%.%.%.",
"%.%.%.%.%.%.%.%.%.%.%.%.%.%.%.%.%.%.%.%.%.%.%.%.%.%.%.%.%.%.%.%.%.%.%.%.%.%.%.%.%.%.%.%.%.%.%.%.%.%.",
"%.%.%.%.%.%.%.%.%.%.%.%.%.%.%.%.%.%.%.%.%.%.%.%.%.%.%.%.%.%.%.%.%.%.%.%.%.%.%.%.%.%.%.%.%.%.%.%.%.%."
};
